<svg id="svg" version="1.1" xmlns="http://www.w3.org/2000/svg" xmlns:xlink="http://www.w3.org/1999/xlink" width="400" height="400" viewBox="0, 0, 400,400"><g id="svgg"><path id="path0" d="M208.440 16.177 C 208.751 16.237,209.201 16.234,209.440 16.172 C 209.679 16.109,209.425 16.060,208.875 16.063 C 208.325 16.066,208.129 16.117,208.440 16.177 M185.903 16.705 C 185.833 16.817,186.108 16.861,186.513 16.801 C 186.918 16.742,187.250 16.650,187.250 16.597 C 187.250 16.406,186.027 16.504,185.903 16.705 M246.313 25.672 C 246.553 25.735,246.947 25.735,247.188 25.672 C 247.428 25.609,247.231 25.558,246.750 25.558 C 246.269 25.558,246.072 25.609,246.313 25.672 M246.313 43.422 C 246.553 43.485,246.947 43.485,247.188 43.422 C 247.428 43.359,247.231 43.308,246.750 43.308 C 246.269 43.308,246.072 43.359,246.313 43.422 M195.940 45.427 C 196.251 45.487,196.701 45.484,196.940 45.422 C 197.179 45.359,196.925 45.310,196.375 45.313 C 195.825 45.316,195.629 45.367,195.940 45.427 M203.690 45.427 C 204.001 45.487,204.451 45.484,204.690 45.422 C 204.929 45.359,204.675 45.310,204.125 45.313 C 203.575 45.316,203.379 45.367,203.690 45.427 M190.250 48.276 C 90.693 55.374,24.648 153.652,56.116 247.875 C 81.878 325.013,163.932 368.278,241.975 345.874 C 325.262 321.964,371.767 233.868,344.384 151.875 C 322.545 86.484,258.465 43.413,190.250 48.276 M61.109 61.063 L 60.375 61.875 61.188 61.141 C 61.945 60.456,62.115 60.250,61.922 60.250 C 61.879 60.250,61.513 60.616,61.109 61.063 M338.500 60.328 C 338.500 60.371,338.866 60.737,339.313 61.141 L 340.125 61.875 339.391 61.063 C 338.706 60.305,338.500 60.135,338.500 60.328 M89.000 67.078 C 89.000 67.121,89.366 67.487,89.813 67.891 L 90.625 68.625 89.891 67.813 C 89.206 67.055,89.000 66.885,89.000 67.078 M254.606 86.063 C 254.809 86.372,256.376 89.888,258.090 93.875 C 259.804 97.862,271.976 126.156,285.140 156.750 C 298.303 187.344,309.128 212.698,309.194 213.092 C 309.355 214.041,200.358 323.250,199.250 323.250 C 198.441 323.250,89.750 214.681,89.750 213.872 C 89.750 213.596,92.718 206.452,96.346 197.997 C 99.974 189.542,112.186 161.081,123.485 134.750 C 134.783 108.419,144.192 86.622,144.394 86.313 C 145.200 85.079,145.247 85.121,161.625 101.500 L 177.374 117.250 199.250 117.250 L 221.126 117.250 237.000 101.375 C 253.932 84.441,253.686 84.655,254.606 86.063 M45.563 195.875 C 45.566 196.425,45.617 196.621,45.677 196.310 C 45.737 195.999,45.734 195.549,45.672 195.310 C 45.609 195.071,45.560 195.325,45.563 195.875 M354.813 195.875 C 354.816 196.425,354.867 196.621,354.927 196.310 C 354.987 195.999,354.984 195.549,354.922 195.310 C 354.859 195.071,354.810 195.325,354.813 195.875 M45.563 203.875 C 45.566 204.425,45.617 204.621,45.677 204.310 C 45.737 203.999,45.734 203.549,45.672 203.310 C 45.609 203.071,45.560 203.325,45.563 203.875 M354.813 203.875 C 354.816 204.425,354.867 204.621,354.927 204.310 C 354.987 203.999,354.984 203.549,354.922 203.310 C 354.859 203.071,354.810 203.325,354.813 203.875 M60.500 338.078 C 60.500 338.121,60.866 338.487,61.313 338.891 L 62.125 339.625 61.391 338.813 C 60.706 338.055,60.500 337.885,60.500 338.078 M339.109 338.813 L 338.375 339.625 339.188 338.891 C 339.945 338.206,340.115 338.000,339.922 338.000 C 339.879 338.000,339.513 338.366,339.109 338.813 M255.058 350.500 C 255.058 350.981,255.109 351.178,255.172 350.938 C 255.235 350.697,255.235 350.303,255.172 350.063 C 255.109 349.822,255.058 350.019,255.058 350.500 M195.940 354.427 C 196.251 354.487,196.701 354.484,196.940 354.422 C 197.179 354.359,196.925 354.310,196.375 354.313 C 195.825 354.316,195.629 354.367,195.940 354.427 M203.690 354.427 C 204.001 354.487,204.451 354.484,204.690 354.422 C 204.929 354.359,204.675 354.310,204.125 354.313 C 203.575 354.316,203.379 354.367,203.690 354.427 M234.813 362.922 C 235.053 362.985,235.447 362.985,235.688 362.922 C 235.928 362.859,235.731 362.808,235.250 362.808 C 234.769 362.808,234.572 362.859,234.813 362.922 M207.325 369.750 C 207.325 370.506,207.372 370.816,207.429 370.438 C 207.486 370.059,207.486 369.441,207.429 369.063 C 207.372 368.684,207.325 368.994,207.325 369.750 M203.822 371.125 C 203.823 371.813,203.872 372.064,203.929 371.684 C 203.987 371.304,203.985 370.742,203.926 370.434 C 203.867 370.127,203.820 370.438,203.822 371.125 M180.822 374.125 C 180.823 374.813,180.872 375.064,180.929 374.684 C 180.987 374.304,180.985 373.742,180.926 373.434 C 180.867 373.127,180.820 373.438,180.822 374.125 M184.813 373.875 C 184.816 374.425,184.867 374.621,184.927 374.310 C 184.987 373.999,184.984 373.549,184.922 373.310 C 184.859 373.071,184.810 373.325,184.813 373.875 M207.572 376.125 C 207.573 376.813,207.622 377.064,207.679 376.684 C 207.737 376.304,207.735 375.742,207.676 375.434 C 207.617 375.127,207.570 375.438,207.572 376.125 M197.737 381.188 L 196.875 382.125 197.813 381.263 C 198.685 380.462,198.865 380.250,198.674 380.250 C 198.632 380.250,198.210 380.672,197.737 381.188 M204.058 381.500 C 204.058 381.981,204.109 382.178,204.172 381.938 C 204.235 381.697,204.235 381.303,204.172 381.063 C 204.109 380.822,204.058 381.019,204.058 381.500 M207.818 382.250 C 207.818 382.869,207.867 383.122,207.926 382.813 C 207.986 382.503,207.986 381.997,207.926 381.688 C 207.867 381.378,207.818 381.631,207.818 382.250 " stroke="none" fill="#0b93b3" fill-rule="evenodd"></path><path id="path1" d="M188.625 0.908 C 133.277 5.030,85.591 28.149,50.775 67.739 C -37.699 168.345,-4.172 325.865,117.508 381.265 C 156.669 399.095,201.790 403.760,244.000 394.343 C 327.592 375.694,390.086 305.324,398.608 220.250 C 409.734 109.175,329.557 12.001,218.000 1.353 C 213.885 0.960,192.311 0.633,188.625 0.908 M216.750 4.104 C 342.290 16.052,424.412 136.974,388.330 256.750 C 357.337 359.635,248.240 418.678,145.125 388.372 C 20.425 351.721,-35.087 206.765,33.276 96.308 C 67.047 41.742,123.834 8.171,190.000 3.656 C 193.597 3.411,212.853 3.733,216.750 4.104 M206.522 16.312 C 201.986 16.967,199.863 21.421,202.500 24.750 C 203.502 26.015,204.554 26.570,208.439 27.881 C 211.938 29.063,212.751 29.647,212.749 30.981 C 212.743 34.955,205.387 34.747,204.587 30.750 C 204.390 29.762,204.251 29.714,202.250 29.941 C 200.349 30.156,200.263 30.463,201.398 32.977 C 203.952 38.633,214.656 38.554,216.254 32.867 C 217.518 28.366,215.887 26.377,209.073 24.111 C 205.899 23.056,205.171 22.500,205.295 21.227 C 205.591 18.170,212.750 19.129,212.750 22.225 C 212.750 22.560,212.488 22.508,214.936 22.665 L 216.997 22.797 216.857 21.961 C 216.569 20.241,216.472 19.966,215.806 18.995 C 214.406 16.952,210.302 15.766,206.522 16.312 M186.750 16.680 C 185.784 16.853,185.947 16.436,183.992 23.750 C 183.753 24.644,183.306 26.275,182.999 27.375 C 181.546 32.572,181.219 33.760,180.740 35.591 C 180.123 37.946,180.036 37.826,182.198 37.613 L 183.945 37.441 184.519 34.970 L 185.093 32.500 186.234 32.481 C 186.862 32.470,187.544 32.428,187.750 32.387 C 187.957 32.346,189.298 32.270,190.732 32.219 L 193.338 32.125 194.247 34.375 L 195.156 36.625 197.078 36.698 C 199.429 36.787,199.521 37.527,196.239 29.977 C 194.721 26.483,192.791 22.022,191.950 20.063 L 190.421 16.500 188.898 16.534 C 188.060 16.553,187.094 16.619,186.750 16.680 M220.405 18.218 C 220.003 20.652,219.809 20.504,224.084 21.036 L 226.543 21.342 226.387 22.382 C 226.301 22.953,226.183 23.692,226.124 24.023 C 225.724 26.274,223.979 38.312,224.044 38.375 C 224.089 38.417,224.575 38.520,225.125 38.602 C 225.675 38.685,226.425 38.815,226.791 38.891 C 227.292 38.996,227.490 38.919,227.591 38.578 C 227.702 38.201,228.698 32.596,229.138 29.875 C 229.204 29.462,229.311 28.844,229.375 28.500 C 229.439 28.156,229.553 27.481,229.629 27.000 C 230.422 21.963,230.415 21.979,231.632 22.247 C 232.178 22.367,233.131 22.537,233.750 22.625 C 234.369 22.713,235.290 22.876,235.798 22.987 L 236.721 23.190 236.986 21.958 C 237.298 20.501,237.318 20.000,237.063 19.999 C 236.959 19.998,235.244 19.727,233.250 19.396 C 231.256 19.065,229.175 18.725,228.625 18.640 C 226.318 18.286,221.344 17.480,220.965 17.399 C 220.664 17.334,220.516 17.551,220.405 18.218 M171.125 18.400 C 170.713 18.457,168.485 18.856,166.175 19.286 L 161.975 20.067 162.105 20.721 C 162.176 21.081,162.625 23.231,163.101 25.500 C 163.578 27.769,164.439 31.931,165.014 34.750 C 166.249 40.797,165.868 40.130,167.858 39.735 C 170.171 39.275,170.088 39.521,169.235 35.638 C 168.304 31.403,168.205 31.645,171.025 31.260 C 177.236 30.411,179.648 27.870,178.767 23.104 C 178.108 19.538,175.315 17.819,171.125 18.400 M190.211 24.991 C 192.033 29.020,192.044 28.900,189.821 28.999 C 186.618 29.141,186.125 29.124,186.155 28.875 C 186.237 28.206,188.353 21.500,188.482 21.500 C 188.564 21.500,189.342 23.071,190.211 24.991 M173.900 22.600 C 175.426 24.126,174.993 26.611,173.058 27.419 C 171.966 27.875,167.935 28.544,167.730 28.303 C 167.607 28.158,166.516 23.489,166.406 22.634 C 166.369 22.347,169.526 21.828,171.588 21.782 C 172.937 21.753,173.116 21.816,173.900 22.600 M242.854 22.652 C 240.584 23.457,236.743 27.814,237.059 29.225 C 237.077 29.308,236.948 30.036,236.772 30.844 C 235.524 36.564,238.047 41.098,243.465 42.870 C 254.566 46.502,261.920 28.421,251.317 23.566 C 248.433 22.246,245.033 21.879,242.854 22.652 M143.250 25.138 C 141.611 25.593,137.381 27.035,134.698 28.054 L 132.770 28.786 133.323 30.231 C 136.890 39.564,140.169 47.739,140.346 47.744 C 141.274 47.770,151.629 43.582,152.304 42.908 C 155.347 39.864,154.124 34.700,150.125 33.707 C 148.540 33.313,148.575 33.350,149.156 32.687 C 152.551 28.809,148.532 23.672,143.250 25.138 M248.470 25.889 C 252.535 27.096,253.662 31.264,251.255 36.185 C 248.222 42.385,240.514 40.758,240.451 33.904 C 240.398 28.167,244.003 24.563,248.470 25.889 M262.401 27.433 C 262.318 27.516,262.250 27.744,262.250 27.941 C 262.250 28.138,262.095 28.654,261.905 29.087 C 261.715 29.520,260.407 33.081,258.999 37.000 C 257.590 40.919,256.231 44.650,255.980 45.293 L 255.523 46.460 257.188 47.104 C 259.180 47.873,258.878 48.172,260.504 43.824 C 262.207 39.268,261.987 39.561,263.294 40.116 C 265.575 41.085,265.856 41.722,266.771 47.985 C 267.040 49.833,267.287 51.357,267.318 51.373 C 268.316 51.881,271.052 53.029,271.110 52.964 C 271.604 52.412,270.290 44.403,269.494 43.115 C 268.822 42.028,268.774 42.061,270.827 42.192 C 274.331 42.417,276.762 40.163,276.789 36.664 C 276.813 33.554,275.095 32.155,267.841 29.378 C 266.210 28.754,264.650 28.134,264.375 28.002 C 263.392 27.527,262.549 27.284,262.401 27.433 M146.188 29.131 C 147.815 31.003,146.692 32.510,142.579 33.974 C 139.237 35.163,139.502 35.257,138.547 32.554 C 137.687 30.119,137.432 30.438,141.299 29.116 C 144.249 28.107,145.301 28.111,146.188 29.131 M126.063 31.507 C 124.237 32.348,124.255 32.274,125.343 34.444 C 126.564 36.877,129.641 43.948,130.130 45.443 C 130.873 47.715,129.724 49.441,126.997 50.148 C 124.146 50.888,123.499 50.200,119.458 42.142 L 116.387 36.019 114.631 36.976 C 113.665 37.502,112.894 38.032,112.917 38.154 C 113.287 40.108,120.383 51.940,121.711 52.820 C 126.205 55.794,134.080 51.767,134.069 46.500 C 134.065 44.480,128.668 30.717,127.901 30.769 C 127.749 30.779,126.922 31.111,126.063 31.507 M268.390 32.994 C 271.986 34.593,272.750 35.194,272.750 36.421 C 272.750 39.454,270.381 39.738,265.055 37.343 C 264.329 37.017,263.631 36.750,263.504 36.750 C 263.297 36.750,263.895 34.931,264.869 32.602 L 265.220 31.761 266.188 32.103 C 266.720 32.291,267.711 32.692,268.390 32.994 M148.364 36.354 C 150.446 37.224,150.701 40.357,148.763 41.263 C 147.265 41.964,142.621 43.470,142.466 43.305 C 142.234 43.059,140.750 38.793,140.750 38.373 C 140.750 37.996,142.734 37.188,145.375 36.490 C 147.531 35.920,147.345 35.929,148.364 36.354 M277.972 45.140 C 275.462 50.146,273.457 54.277,273.517 54.320 C 273.576 54.362,274.308 54.746,275.142 55.173 L 276.660 55.949 276.939 55.287 C 277.093 54.923,277.743 53.669,278.384 52.500 C 280.170 49.243,281.441 46.875,282.946 44.000 C 283.702 42.556,284.758 40.600,285.292 39.653 C 285.827 38.706,286.233 37.904,286.194 37.871 C 286.066 37.761,283.881 36.641,283.205 36.338 L 282.535 36.039 277.972 45.140 M288.938 41.004 C 288.028 42.652,287.960 42.510,290.313 43.880 C 293.236 45.582,295.280 46.780,295.964 47.192 C 296.791 47.689,296.958 47.608,288.375 50.859 C 279.908 54.067,280.314 53.853,279.394 55.600 C 278.553 57.198,278.497 57.059,280.438 58.195 C 283.247 59.840,290.420 64.240,291.329 64.877 C 291.807 65.212,291.894 65.155,292.670 64.002 C 293.713 62.453,293.714 62.461,292.438 61.751 C 291.853 61.426,290.519 60.590,289.472 59.893 C 288.426 59.195,286.879 58.208,286.035 57.698 C 285.191 57.189,284.500 56.665,284.500 56.535 C 284.500 56.405,288.128 55.092,292.563 53.619 C 302.011 50.479,301.012 50.923,302.115 49.372 C 303.051 48.054,303.167 47.750,302.730 47.750 C 302.582 47.750,301.429 47.092,300.168 46.287 C 298.907 45.482,296.806 44.171,295.500 43.373 C 294.194 42.575,292.367 41.433,291.440 40.836 C 289.421 39.534,289.761 39.511,288.938 41.004 M98.718 46.285 C 97.842 46.848,97.081 47.348,97.027 47.398 C 96.943 47.475,101.645 54.656,102.004 55.000 C 102.076 55.069,103.344 56.925,104.822 59.125 C 108.444 64.518,108.379 64.440,108.927 64.083 C 109.173 63.923,110.556 63.085,112.000 62.222 C 113.444 61.359,114.906 60.463,115.250 60.232 C 115.594 60.000,116.747 59.271,117.813 58.612 C 120.058 57.222,119.958 57.471,118.926 55.852 C 118.115 54.581,118.113 54.580,117.495 55.006 C 116.238 55.871,110.023 59.500,109.798 59.500 C 109.670 59.500,108.967 58.572,108.236 57.438 C 106.430 54.633,102.410 48.447,101.254 46.693 L 100.310 45.261 98.718 46.285 M192.875 45.505 C 104.338 49.606,37.212 127.601,46.385 215.717 C 55.650 304.705,137.813 367.097,226.177 352.246 C 306.376 338.767,362.536 264.928,354.115 184.033 C 345.599 102.239,275.129 41.695,192.875 45.505 M209.750 48.259 C 305.556 54.983,371.200 145.503,347.349 238.000 C 328.603 310.701,258.308 359.194,183.750 350.859 C 91.546 340.551,30.019 251.459,53.151 161.750 C 71.204 91.738,138.133 43.233,209.750 48.259 M89.184 53.338 C 81.581 56.552,80.361 64.012,86.458 70.003 C 93.304 76.731,103.914 71.783,101.980 62.765 C 101.636 61.163,101.649 61.168,99.735 61.866 C 98.326 62.380,98.134 62.527,98.197 63.039 C 98.680 66.970,98.337 68.047,96.225 69.234 C 91.648 71.806,84.279 63.989,86.812 59.250 C 88.058 56.919,90.987 55.840,93.110 56.929 L 94.054 57.413 95.296 56.100 C 96.867 54.439,96.868 54.556,95.273 53.695 C 93.326 52.643,91.132 52.514,89.184 53.338 M308.250 55.343 C 305.173 57.384,298.588 61.666,294.178 64.493 C 293.245 65.092,292.570 65.656,292.678 65.747 C 294.852 67.580,295.719 67.927,296.477 67.270 C 298.306 65.684,299.728 64.924,300.212 65.277 C 301.587 66.280,305.887 69.841,305.961 70.039 C 306.009 70.166,305.877 70.630,305.668 71.072 C 305.459 71.514,305.206 72.205,305.106 72.608 C 305.005 73.012,304.773 73.630,304.589 73.983 C 304.230 74.675,304.227 74.671,306.707 76.780 L 307.476 77.434 308.204 75.405 C 311.943 64.964,314.586 56.443,314.159 56.204 C 313.914 56.067,313.105 55.459,312.361 54.853 C 310.706 53.505,311.092 53.459,308.250 55.343 M309.750 59.105 C 309.750 59.433,307.432 66.161,307.258 66.338 C 307.143 66.456,306.447 66.095,305.712 65.537 C 303.652 63.974,302.600 62.976,302.875 62.847 C 303.012 62.782,303.744 62.344,304.500 61.873 C 305.256 61.401,306.325 60.772,306.875 60.474 C 307.425 60.175,308.143 59.722,308.471 59.466 C 309.008 59.046,309.750 58.837,309.750 59.105 M237.000 101.375 L 221.126 117.250 199.250 117.250 L 177.374 117.250 161.625 101.500 C 145.247 85.121,145.200 85.079,144.394 86.313 C 144.192 86.622,134.783 108.419,123.485 134.750 C 112.186 161.081,99.974 189.542,96.346 197.997 C 92.718 206.452,89.750 213.596,89.750 213.872 C 89.750 214.681,198.441 323.250,199.250 323.250 C 200.358 323.250,309.355 214.041,309.194 213.092 C 309.128 212.698,298.303 187.344,285.140 156.750 C 271.976 126.156,259.804 97.862,258.090 93.875 C 256.376 89.888,254.809 86.372,254.606 86.063 C 253.686 84.655,253.932 84.441,237.000 101.375 M256.483 96.375 C 256.999 97.612,268.312 123.938,281.622 154.875 C 294.933 185.813,305.977 211.491,306.165 211.938 L 306.507 212.750 262.753 212.750 L 219.000 212.750 219.000 207.503 L 219.000 202.255 231.813 193.690 C 245.042 184.846,245.326 184.620,244.489 183.611 C 244.234 183.304,242.127 183.250,230.469 183.250 L 216.750 183.250 216.750 221.500 L 216.750 259.750 199.125 259.750 L 181.500 259.750 181.500 221.500 L 181.500 183.250 167.800 183.250 C 153.304 183.250,153.500 183.234,153.500 184.412 C 153.500 185.143,153.074 184.840,167.188 194.123 L 179.250 202.057 179.250 207.404 L 179.250 212.750 135.973 212.750 C 101.451 212.750,92.722 212.687,92.823 212.438 C 93.074 211.815,143.303 94.797,144.554 91.920 L 145.839 88.965 161.108 104.233 L 176.377 119.500 199.252 119.500 L 222.127 119.500 237.610 104.015 L 253.094 88.530 254.320 91.327 C 254.994 92.866,255.968 95.138,256.483 96.375 M179.250 192.250 C 179.250 195.963,179.198 199.000,179.135 199.000 C 179.004 199.000,159.252 186.037,158.887 185.712 C 158.757 185.595,163.285 185.500,168.950 185.500 L 179.250 185.500 179.250 192.250 M239.363 185.720 C 239.152 185.915,220.092 198.627,219.313 199.093 C 219.066 199.240,219.000 197.834,219.000 192.390 L 219.000 185.500 229.300 185.500 C 235.231 185.500,239.499 185.593,239.363 185.720 M179.250 238.112 L 179.250 261.225 180.063 261.822 C 180.509 262.151,184.784 264.880,189.563 267.886 L 198.250 273.351 198.250 296.425 C 198.250 309.116,198.222 319.500,198.187 319.500 C 198.153 319.500,174.612 295.988,145.875 267.250 L 93.625 215.000 136.438 215.000 L 179.250 215.000 179.250 238.112 M304.750 215.063 C 304.750 215.097,281.294 238.581,252.625 267.250 L 200.500 319.375 200.500 296.360 L 200.500 273.346 208.938 268.011 C 213.578 265.077,217.741 262.406,218.188 262.075 L 219.000 261.475 219.000 238.237 L 219.000 215.000 261.875 215.000 C 285.456 215.000,304.750 215.028,304.750 215.063 M213.863 261.961 C 212.667 263.024,199.927 270.750,199.370 270.750 C 198.785 270.750,184.750 262.206,184.750 261.850 C 184.750 261.795,191.354 261.750,199.425 261.750 C 207.496 261.750,213.993 261.845,213.863 261.961 M256.750 346.597 L 255.375 347.147 255.250 349.321 C 255.130 351.406,255.146 351.489,255.625 351.347 C 256.789 351.001,257.149 350.531,257.735 348.593 C 258.063 347.511,258.381 346.484,258.442 346.313 C 258.587 345.906,258.397 345.938,256.750 346.597 M127.755 352.031 C 126.474 354.535,124.374 358.556,123.087 360.966 C 121.800 363.376,120.832 365.424,120.936 365.517 C 122.011 366.482,132.833 370.751,134.200 370.749 C 138.974 370.741,141.523 365.287,138.317 361.940 C 137.561 361.150,137.520 361.220,139.061 360.649 C 142.523 359.366,143.318 354.521,140.439 352.256 C 139.808 351.759,134.521 349.255,132.000 348.259 C 131.381 348.014,130.697 347.738,130.479 347.646 C 130.165 347.513,129.602 348.419,127.755 352.031 M261.625 351.055 C 260.250 351.585,257.311 352.700,255.093 353.534 L 251.061 355.049 251.505 356.462 C 252.428 359.397,257.306 373.887,257.462 374.156 C 257.617 374.422,258.447 374.128,270.029 369.707 L 272.683 368.694 272.154 367.440 C 271.436 365.739,271.696 365.716,265.865 367.992 C 263.011 369.106,260.565 369.980,260.428 369.934 C 260.292 369.889,259.747 368.641,259.218 367.162 L 258.256 364.472 259.065 364.142 C 259.511 363.961,261.688 363.109,263.904 362.248 L 267.934 360.683 267.311 359.239 L 266.687 357.794 265.781 358.119 C 265.283 358.297,263.261 359.075,261.288 359.847 C 259.315 360.618,257.560 361.250,257.388 361.250 C 257.079 361.250,255.530 357.131,255.758 356.915 C 255.822 356.853,257.956 355.995,260.500 355.007 C 266.006 352.870,265.610 353.195,264.791 351.483 L 264.125 350.092 261.625 351.055 M134.905 353.024 C 138.491 354.645,139.188 355.634,138.072 357.522 C 137.175 359.040,135.616 358.926,131.441 357.036 C 129.545 356.178,129.594 356.450,130.820 353.563 C 131.737 351.405,131.416 351.447,134.905 353.024 M152.067 357.688 C 149.704 360.510,148.281 362.244,146.888 364.000 C 146.070 365.031,145.337 365.931,145.260 366.000 C 145.182 366.069,144.615 366.744,144.000 367.500 C 143.385 368.256,142.824 368.931,142.752 369.000 C 142.681 369.069,141.954 369.969,141.137 371.000 C 140.320 372.031,139.536 372.953,139.395 373.049 C 139.048 373.285,139.101 373.312,141.314 374.048 L 143.253 374.692 144.899 372.703 C 146.113 371.236,146.653 370.755,146.960 370.873 C 147.454 371.063,150.100 371.829,152.867 372.582 L 154.858 373.125 155.165 375.500 C 155.334 376.806,155.479 377.946,155.486 378.032 C 155.494 378.119,156.259 378.377,157.188 378.605 C 158.116 378.834,159.087 379.085,159.345 379.163 C 159.759 379.288,159.798 379.204,159.663 378.465 C 159.579 378.003,159.065 374.137,158.521 369.875 C 157.977 365.613,157.398 361.090,157.235 359.826 L 156.938 357.527 155.302 357.014 C 153.142 356.336,153.211 356.321,152.067 357.688 M245.276 356.894 C 244.672 357.084,244.141 357.276,244.097 357.320 C 244.052 357.364,244.298 358.520,244.643 359.888 C 245.774 364.379,249.055 376.873,249.122 376.948 C 249.246 377.086,253.500 375.880,253.500 375.707 C 253.500 375.502,250.295 366.246,248.624 361.625 C 247.977 359.837,247.334 357.953,247.194 357.438 C 246.914 356.408,246.867 356.395,245.276 356.894 M130.939 360.261 C 136.194 362.443,137.483 364.878,134.434 366.863 C 133.512 367.462,127.482 365.815,126.311 364.644 C 126.206 364.539,128.280 359.250,128.426 359.250 C 128.468 359.250,129.599 359.705,130.939 360.261 M236.250 359.410 C 233.618 359.801,226.584 361.100,226.453 361.219 C 226.289 361.367,229.321 380.905,229.542 381.126 C 229.682 381.265,233.078 380.723,233.290 380.527 C 233.380 380.443,233.145 378.771,232.767 376.810 C 231.964 372.644,231.760 373.016,235.250 372.292 C 238.763 371.564,240.386 370.727,241.367 369.140 C 243.806 365.190,240.439 358.787,236.250 359.410 M166.398 361.813 C 164.289 371.308,162.577 379.652,162.711 379.775 C 162.929 379.973,177.039 382.294,177.178 382.155 C 177.656 381.677,177.631 379.231,177.146 379.125 C 176.860 379.062,174.600 378.712,172.125 378.348 C 169.650 377.984,167.500 377.587,167.346 377.465 C 167.147 377.307,167.541 374.908,168.742 368.986 C 169.662 364.444,170.350 360.687,170.270 360.638 C 170.122 360.546,167.303 360.000,166.979 360.000 C 166.881 360.000,166.619 360.816,166.398 361.813 M153.750 361.849 C 153.750 362.178,154.118 366.151,154.357 368.412 C 154.492 369.685,154.417 369.768,153.419 369.456 C 152.982 369.320,151.850 369.000,150.904 368.745 C 149.957 368.491,149.076 368.176,148.945 368.045 C 148.740 367.840,150.491 365.280,152.738 362.500 C 153.016 362.156,153.245 361.791,153.247 361.688 C 153.253 361.338,153.750 361.497,153.750 361.849 M219.156 362.131 C 216.426 362.480,216.376 362.517,216.143 364.345 C 215.758 367.363,214.220 376.612,214.082 376.738 C 213.893 376.910,214.042 377.318,211.495 369.625 L 209.344 363.125 207.735 363.160 C 206.849 363.180,205.584 363.208,204.923 363.223 L 203.721 363.250 203.892 371.313 C 203.987 375.747,204.096 379.712,204.135 380.125 C 204.174 380.538,204.216 381.522,204.228 382.313 L 204.250 383.750 205.188 383.747 C 206.699 383.743,207.969 383.464,207.875 383.158 C 207.828 383.002,207.721 380.794,207.639 378.250 C 207.557 375.706,207.422 372.219,207.340 370.500 C 207.137 366.266,207.281 366.524,210.128 375.500 C 211.458 379.694,212.587 383.167,212.637 383.218 C 213.021 383.613,216.511 382.909,216.614 382.416 C 216.676 382.119,217.193 378.556,217.762 374.500 C 219.184 364.380,219.006 364.318,220.269 375.375 C 220.709 379.225,221.095 382.408,221.128 382.447 C 221.194 382.529,224.572 382.012,224.680 381.904 C 224.718 381.866,224.531 380.269,224.265 378.355 C 223.999 376.441,223.436 372.175,223.013 368.875 C 222.168 362.281,222.076 361.735,221.808 361.783 C 221.707 361.801,220.514 361.957,219.156 362.131 M188.533 363.007 C 182.985 364.160,179.382 371.565,181.411 377.643 C 184.060 385.574,196.771 385.904,199.742 378.119 C 202.978 369.641,196.786 361.292,188.533 363.007 M236.598 363.129 C 238.786 364.167,238.815 367.569,236.644 368.599 C 235.687 369.054,231.816 369.900,231.615 369.698 C 231.471 369.554,230.500 364.572,230.500 363.974 C 230.500 363.669,230.995 363.481,232.563 363.189 C 235.267 362.685,235.650 362.679,236.598 363.129 M193.672 366.826 C 197.959 369.532,197.484 378.216,192.946 380.112 C 189.467 381.565,185.745 379.406,184.994 375.500 C 183.761 369.089,188.985 363.867,193.672 366.826 " stroke="none" fill="#040404" fill-rule="evenodd"></path><path id="path2" d="M192.440 3.677 C 192.751 3.737,193.201 3.734,193.440 3.672 C 193.679 3.609,193.425 3.560,192.875 3.563 C 192.325 3.566,192.129 3.617,192.440 3.677 M207.190 3.677 C 207.501 3.737,207.951 3.734,208.190 3.672 C 208.429 3.609,208.175 3.560,207.625 3.563 C 207.075 3.566,206.879 3.617,207.190 3.677 M253.250 24.578 C 253.250 24.621,253.616 24.987,254.063 25.391 L 254.875 26.125 254.141 25.313 C 253.456 24.555,253.250 24.385,253.250 24.578 M193.938 45.426 C 194.247 45.486,194.753 45.486,195.063 45.426 C 195.372 45.367,195.119 45.318,194.500 45.318 C 193.881 45.318,193.628 45.367,193.938 45.426 M205.438 45.426 C 205.747 45.486,206.253 45.486,206.563 45.426 C 206.872 45.367,206.619 45.318,206.000 45.318 C 205.381 45.318,205.128 45.367,205.438 45.426 M95.859 55.563 L 95.125 56.375 95.938 55.641 C 96.695 54.956,96.865 54.750,96.672 54.750 C 96.629 54.750,96.263 55.116,95.859 55.563 M85.109 55.813 L 84.375 56.625 85.188 55.891 C 85.945 55.206,86.115 55.000,85.922 55.000 C 85.879 55.000,85.513 55.366,85.109 55.813 M64.866 57.563 L 63.625 58.875 64.938 57.634 C 65.659 56.952,66.250 56.361,66.250 56.322 C 66.250 56.135,66.018 56.343,64.866 57.563 M335.375 57.500 C 336.052 58.188,336.662 58.750,336.731 58.750 C 336.800 58.750,336.302 58.188,335.625 57.500 C 334.948 56.813,334.338 56.250,334.269 56.250 C 334.200 56.250,334.698 56.813,335.375 57.500 M57.616 64.813 L 56.375 66.125 57.688 64.884 C 58.907 63.732,59.115 63.500,58.928 63.500 C 58.889 63.500,58.298 64.091,57.616 64.813 M342.625 64.750 C 343.302 65.438,343.912 66.000,343.981 66.000 C 344.050 66.000,343.552 65.438,342.875 64.750 C 342.198 64.063,341.588 63.500,341.519 63.500 C 341.450 63.500,341.948 64.063,342.625 64.750 M102.308 65.000 C 102.308 65.481,102.359 65.678,102.422 65.438 C 102.485 65.197,102.485 64.803,102.422 64.563 C 102.359 64.322,102.308 64.519,102.308 65.000 M93.190 73.427 C 93.501 73.487,93.951 73.484,94.190 73.422 C 94.429 73.359,94.175 73.310,93.625 73.313 C 93.075 73.316,92.879 73.367,93.190 73.427 M90.625 90.500 C 88.566 92.563,86.938 94.250,87.006 94.250 C 87.075 94.250,88.816 92.563,90.875 90.500 C 92.934 88.438,94.562 86.750,94.494 86.750 C 94.425 86.750,92.684 88.438,90.625 90.500 M309.625 90.500 C 311.684 92.563,313.425 94.250,313.494 94.250 C 313.562 94.250,311.934 92.563,309.875 90.500 C 307.816 88.438,306.075 86.750,306.006 86.750 C 305.938 86.750,307.566 88.438,309.625 90.500 M237.610 104.015 L 222.127 119.500 199.252 119.500 L 176.377 119.500 161.108 104.233 L 145.839 88.965 144.554 91.920 C 143.303 94.797,93.074 211.815,92.823 212.438 C 92.722 212.687,101.451 212.750,135.973 212.750 L 179.250 212.750 179.250 207.404 L 179.250 202.057 167.188 194.123 C 153.074 184.840,153.500 185.143,153.500 184.412 C 153.500 183.234,153.304 183.250,167.800 183.250 L 181.500 183.250 181.500 221.500 L 181.500 259.750 199.125 259.750 L 216.750 259.750 216.750 221.500 L 216.750 183.250 230.469 183.250 C 242.127 183.250,244.234 183.304,244.489 183.611 C 245.326 184.620,245.042 184.846,231.813 193.690 L 219.000 202.255 219.000 207.503 L 219.000 212.750 262.753 212.750 L 306.507 212.750 306.165 211.938 C 305.977 211.491,294.933 185.813,281.622 154.875 C 268.312 123.938,256.999 97.612,256.483 96.375 C 255.968 95.138,254.994 92.866,254.320 91.327 L 253.094 88.530 237.610 104.015 M3.813 192.625 C 3.816 193.175,3.867 193.371,3.927 193.060 C 3.987 192.749,3.984 192.299,3.922 192.060 C 3.859 191.821,3.810 192.075,3.813 192.625 M396.563 192.625 C 396.566 193.175,396.617 193.371,396.677 193.060 C 396.737 192.749,396.734 192.299,396.672 192.060 C 396.609 191.821,396.560 192.075,396.563 192.625 M45.568 194.000 C 45.568 194.619,45.617 194.872,45.676 194.563 C 45.736 194.253,45.736 193.747,45.676 193.438 C 45.617 193.128,45.568 193.381,45.568 194.000 M354.818 194.000 C 354.818 194.619,354.867 194.872,354.926 194.563 C 354.986 194.253,354.986 193.747,354.926 193.438 C 354.867 193.128,354.818 193.381,354.818 194.000 M45.568 205.750 C 45.568 206.369,45.617 206.622,45.676 206.313 C 45.736 206.003,45.736 205.497,45.676 205.188 C 45.617 204.878,45.568 205.131,45.568 205.750 M354.818 205.750 C 354.818 206.369,354.867 206.622,354.926 206.313 C 354.986 206.003,354.986 205.497,354.926 205.188 C 354.867 204.878,354.818 205.131,354.818 205.750 M3.813 207.125 C 3.816 207.675,3.867 207.871,3.927 207.560 C 3.987 207.249,3.984 206.799,3.922 206.560 C 3.859 206.321,3.810 206.575,3.813 207.125 M396.563 207.125 C 396.566 207.675,396.617 207.871,396.677 207.560 C 396.737 207.249,396.734 206.799,396.672 206.560 C 396.609 206.321,396.560 206.575,396.563 207.125 M90.625 309.250 C 92.684 311.313,94.425 313.000,94.494 313.000 C 94.562 313.000,92.934 311.313,90.875 309.250 C 88.816 307.188,87.075 305.500,87.006 305.500 C 86.938 305.500,88.566 307.188,90.625 309.250 M309.625 309.250 C 307.566 311.313,305.938 313.000,306.006 313.000 C 306.075 313.000,307.816 311.313,309.875 309.250 C 311.934 307.188,313.562 305.500,313.494 305.500 C 313.425 305.500,311.684 307.188,309.625 309.250 M57.625 335.000 C 58.302 335.688,58.912 336.250,58.981 336.250 C 59.050 336.250,58.552 335.688,57.875 335.000 C 57.198 334.313,56.588 333.750,56.519 333.750 C 56.450 333.750,56.948 334.313,57.625 335.000 M342.616 335.063 L 341.375 336.375 342.688 335.134 C 343.907 333.982,344.115 333.750,343.928 333.750 C 343.889 333.750,343.298 334.341,342.616 335.063 M64.875 342.250 C 65.552 342.938,66.162 343.500,66.231 343.500 C 66.300 343.500,65.802 342.938,65.125 342.250 C 64.448 341.563,63.838 341.000,63.769 341.000 C 63.700 341.000,64.198 341.563,64.875 342.250 M335.366 342.313 L 334.125 343.625 335.438 342.384 C 336.159 341.702,336.750 341.111,336.750 341.072 C 336.750 340.885,336.518 341.093,335.366 342.313 M255.063 348.875 C 255.066 349.425,255.117 349.621,255.177 349.310 C 255.237 348.999,255.234 348.549,255.172 348.310 C 255.109 348.071,255.060 348.325,255.063 348.875 M193.938 354.426 C 194.247 354.486,194.753 354.486,195.063 354.426 C 195.372 354.367,195.119 354.318,194.500 354.318 C 193.881 354.318,193.628 354.367,193.938 354.426 M205.438 354.426 C 205.747 354.486,206.253 354.486,206.563 354.426 C 206.872 354.367,206.619 354.318,206.000 354.318 C 205.381 354.318,205.128 354.367,205.438 354.426 M124.375 358.000 C 124.162 358.413,124.043 358.750,124.112 358.750 C 124.181 358.750,124.412 358.413,124.625 358.000 C 124.838 357.587,124.957 357.250,124.888 357.250 C 124.819 357.250,124.588 357.587,124.375 358.000 M203.600 363.351 C 203.525 363.544,203.511 364.079,203.567 364.539 C 203.661 365.306,203.673 365.288,203.710 364.330 C 203.743 363.461,203.845 363.267,204.313 363.176 L 204.875 363.068 204.305 363.034 C 203.991 363.015,203.674 363.158,203.600 363.351 M207.568 373.500 C 207.568 374.119,207.617 374.372,207.676 374.063 C 207.736 373.753,207.736 373.247,207.676 372.938 C 207.617 372.628,207.568 372.881,207.568 373.500 M203.825 374.500 C 203.825 375.256,203.872 375.566,203.929 375.188 C 203.986 374.809,203.986 374.191,203.929 373.813 C 203.872 373.434,203.825 373.744,203.825 374.500 M194.609 378.813 L 193.875 379.625 194.688 378.891 C 195.134 378.487,195.500 378.121,195.500 378.078 C 195.500 377.885,195.294 378.055,194.609 378.813 M207.825 379.500 C 207.825 380.256,207.872 380.566,207.929 380.188 C 207.986 379.809,207.986 379.191,207.929 378.813 C 207.872 378.434,207.825 378.744,207.825 379.500 M183.250 381.125 C 183.716 381.606,184.154 382.000,184.223 382.000 C 184.292 382.000,183.966 381.606,183.500 381.125 C 183.034 380.644,182.596 380.250,182.527 380.250 C 182.458 380.250,182.784 380.644,183.250 381.125 M212.313 383.000 C 212.369 383.206,212.687 383.396,213.020 383.421 C 213.497 383.458,213.519 383.438,213.125 383.330 C 212.850 383.254,212.532 383.065,212.418 382.909 C 212.282 382.721,212.246 382.752,212.313 383.000 M190.313 383.929 C 190.691 383.986,191.309 383.986,191.688 383.929 C 192.066 383.872,191.756 383.825,191.000 383.825 C 190.244 383.825,189.934 383.872,190.313 383.929 M192.440 396.177 C 192.751 396.237,193.201 396.234,193.440 396.172 C 193.679 396.109,193.425 396.060,192.875 396.063 C 192.325 396.066,192.129 396.117,192.440 396.177 M207.190 396.177 C 207.501 396.237,207.951 396.234,208.190 396.172 C 208.429 396.109,208.175 396.060,207.625 396.063 C 207.075 396.066,206.879 396.117,207.190 396.177 " stroke="none" fill="#4cd4c4" fill-rule="evenodd"></path><path id="path3" d="M192.500 3.648 C 191.744 3.699,189.325 3.858,187.125 4.001 C 84.313 10.692,3.910 96.650,3.910 199.875 C 3.910 308.321,91.744 396.106,200.250 396.106 C 308.756 396.106,396.590 308.321,396.590 199.875 C 396.590 92.212,310.000 4.779,202.250 3.644 C 197.644 3.596,193.256 3.598,192.500 3.648 M212.764 16.620 C 215.046 17.410,216.991 19.853,216.998 21.938 L 217.000 22.750 214.899 22.750 L 212.797 22.750 212.461 21.688 C 211.711 19.317,206.638 18.624,205.506 20.738 C 204.808 22.043,205.899 22.963,209.491 24.100 C 215.936 26.141,217.861 28.651,216.359 33.059 C 214.610 38.190,204.929 38.803,201.739 33.983 C 201.070 32.974,200.265 30.402,200.533 30.134 C 200.986 29.680,204.326 29.612,204.442 30.054 C 205.470 33.985,210.832 35.217,212.460 31.897 C 213.293 30.196,212.284 29.263,208.235 27.986 C 203.176 26.391,201.512 24.953,201.298 21.991 C 200.960 17.325,206.841 14.570,212.764 16.620 M194.804 26.250 C 197.128 31.681,199.092 36.270,199.170 36.448 C 199.281 36.700,198.838 36.755,197.129 36.698 L 194.947 36.625 194.064 34.416 L 193.180 32.207 189.653 32.387 C 187.712 32.486,185.907 32.646,185.641 32.744 C 185.189 32.909,184.267 35.767,184.254 37.043 C 184.250 37.490,183.832 37.613,181.438 37.877 C 180.647 37.965,180.003 37.944,180.006 37.830 C 180.013 37.567,181.033 33.798,183.003 26.750 C 183.445 25.169,183.894 23.538,184.000 23.125 C 184.106 22.712,184.544 21.107,184.972 19.558 C 185.400 18.009,185.750 16.693,185.750 16.633 C 185.750 16.511,188.417 16.324,189.727 16.355 L 190.580 16.375 194.804 26.250 M223.273 17.625 C 223.914 17.738,230.151 18.740,234.500 19.429 C 237.695 19.935,237.614 19.871,237.252 21.614 C 236.885 23.385,236.831 23.403,233.732 22.770 C 230.444 22.100,230.593 22.075,230.413 23.313 C 230.328 23.897,230.028 25.669,229.746 27.250 C 229.465 28.831,228.893 32.088,228.476 34.488 C 228.059 36.887,227.672 38.924,227.616 39.014 C 227.518 39.172,224.085 38.674,223.897 38.474 C 223.846 38.420,224.296 35.112,224.898 31.125 C 226.499 20.513,226.423 21.576,225.585 21.405 C 224.790 21.242,220.820 20.750,220.307 20.750 C 220.049 20.750,220.013 20.404,220.145 19.188 C 220.384 16.993,220.203 17.084,223.273 17.625 M175.891 18.784 C 177.913 19.734,179.004 21.821,178.995 24.719 C 178.981 28.723,176.975 30.436,171.192 31.383 C 168.692 31.792,168.517 31.858,168.627 32.348 C 168.693 32.638,169.018 34.056,169.350 35.500 C 170.335 39.782,170.523 39.424,166.932 40.098 C 165.902 40.291,166.141 40.939,164.752 34.200 C 164.205 31.546,163.319 27.264,162.783 24.685 C 161.809 19.999,161.809 19.995,162.342 19.873 C 162.901 19.745,168.921 18.606,170.000 18.424 C 171.961 18.093,174.788 18.265,175.891 18.784 M170.625 21.911 C 167.193 22.370,166.483 22.555,166.599 22.962 C 166.663 23.189,166.902 24.275,167.129 25.375 C 167.710 28.184,167.735 28.250,168.204 28.251 C 169.907 28.253,173.163 27.376,173.793 26.746 C 176.062 24.477,174.078 21.449,170.625 21.911 M187.311 25.310 C 186.099 29.522,185.890 29.101,189.087 28.883 L 191.695 28.706 190.179 25.228 C 189.345 23.315,188.589 21.750,188.499 21.750 C 188.409 21.750,187.874 23.352,187.311 25.310 M250.064 22.914 C 256.432 25.206,258.386 30.862,255.141 37.609 C 250.431 47.401,236.328 44.309,236.400 33.500 C 236.459 24.784,242.423 20.163,250.064 22.914 M147.697 25.226 C 150.509 26.668,151.505 31.481,149.276 32.859 C 148.776 33.168,148.988 33.500,149.688 33.505 C 154.666 33.545,155.748 41.386,151.125 43.921 C 150.329 44.358,140.197 48.031,140.089 47.922 C 139.900 47.733,132.750 29.134,132.750 28.831 C 132.750 28.627,140.961 25.584,143.000 25.032 C 144.530 24.618,146.685 24.707,147.697 25.226 M244.357 26.207 C 240.410 28.061,239.218 35.695,242.434 38.519 C 246.523 42.108,252.234 37.956,252.344 31.314 C 252.410 27.277,248.036 24.479,244.357 26.207 M267.413 29.028 C 272.925 31.225,274.012 31.770,275.366 33.018 C 279.173 36.528,275.859 43.021,270.576 42.401 L 269.277 42.249 269.876 43.562 C 270.732 45.440,271.723 53.280,271.098 53.234 C 270.975 53.224,270.031 52.799,269.000 52.287 L 267.125 51.358 266.596 47.741 C 265.774 42.128,265.481 41.383,263.743 40.497 C 262.235 39.727,262.218 39.745,260.768 43.563 C 260.024 45.522,259.324 47.310,259.213 47.537 C 259.004 47.960,255.500 46.930,255.500 46.445 C 255.500 46.342,256.731 42.853,258.235 38.691 C 259.739 34.530,261.272 30.253,261.642 29.188 C 262.454 26.850,261.979 26.863,267.413 29.028 M140.875 29.412 C 139.363 29.904,138.098 30.331,138.065 30.360 C 137.963 30.449,139.303 34.362,139.516 34.596 C 139.814 34.923,144.991 33.001,145.830 32.251 C 147.310 30.929,146.456 28.490,144.519 28.509 C 144.027 28.514,142.387 28.920,140.875 29.412 M130.552 35.891 C 135.031 46.507,135.224 48.033,132.436 50.833 C 128.221 55.065,122.329 54.996,119.546 50.680 C 118.395 48.894,112.750 38.353,112.750 37.988 C 112.750 37.730,116.429 35.822,116.561 36.012 C 116.604 36.074,118.035 38.915,119.742 42.326 C 123.887 50.608,124.558 51.207,127.933 49.636 C 131.014 48.202,130.947 47.291,127.135 38.730 C 125.521 35.106,124.297 32.105,124.413 32.061 C 124.530 32.016,125.356 31.656,126.250 31.259 C 128.385 30.312,128.043 29.944,130.552 35.891 M264.972 32.688 C 263.815 35.684,263.550 36.501,263.705 36.597 C 266.586 38.378,270.773 39.266,271.738 38.301 C 273.066 36.973,272.176 34.000,270.450 34.000 C 270.348 34.000,269.627 33.708,268.846 33.351 C 267.551 32.759,265.581 32.000,265.337 32.000 C 265.283 32.000,265.118 32.309,264.972 32.688 M286.162 37.881 C 286.216 38.022,284.761 40.947,282.928 44.381 C 281.095 47.815,278.996 51.750,278.264 53.125 C 277.532 54.500,276.852 55.716,276.752 55.827 C 276.515 56.091,273.213 54.464,273.308 54.130 C 273.348 53.990,275.434 49.793,277.945 44.804 L 282.509 35.734 284.286 36.679 C 285.264 37.199,286.108 37.740,286.162 37.881 M143.750 37.152 C 142.306 37.645,141.044 38.124,140.945 38.217 C 140.718 38.429,142.477 43.250,142.780 43.250 C 143.716 43.250,148.721 41.112,149.341 40.447 C 150.298 39.420,150.161 37.965,149.011 36.938 C 147.970 36.007,146.984 36.047,143.750 37.152 M292.875 41.583 C 295.823 43.407,298.894 45.294,300.875 46.499 C 303.466 48.076,303.367 47.859,302.232 49.468 L 301.231 50.887 293.428 53.479 C 289.136 54.904,285.358 56.169,285.033 56.290 C 284.390 56.529,284.156 56.359,291.250 60.811 C 292.556 61.631,293.661 62.336,293.706 62.377 C 293.930 62.587,291.878 65.257,291.580 65.142 C 291.396 65.072,290.037 64.263,288.560 63.346 C 287.083 62.430,284.863 61.060,283.625 60.302 C 279.702 57.901,278.504 57.128,278.505 57.000 C 278.506 56.931,278.880 56.200,279.338 55.375 C 280.306 53.631,279.742 53.911,289.750 50.196 C 293.119 48.946,295.965 47.844,296.075 47.748 C 296.185 47.653,294.779 46.697,292.950 45.624 C 291.121 44.552,289.259 43.457,288.813 43.192 C 287.816 42.600,287.816 42.615,288.800 40.902 L 289.601 39.508 290.238 39.927 C 290.588 40.158,291.775 40.903,292.875 41.583 M105.452 52.875 C 106.344 54.250,107.681 56.299,108.422 57.428 L 109.769 59.480 111.572 58.405 C 112.564 57.814,114.441 56.693,115.743 55.915 C 118.593 54.212,118.211 54.203,119.172 55.988 L 119.970 57.469 117.047 59.273 C 108.739 64.401,108.452 64.560,108.127 64.210 C 107.957 64.026,106.489 61.906,104.867 59.500 C 103.244 57.094,100.744 53.400,99.312 51.292 C 97.880 49.183,96.746 47.428,96.792 47.390 C 96.837 47.353,97.657 46.803,98.613 46.167 L 100.351 45.013 102.090 47.694 C 103.047 49.168,104.560 51.500,105.452 52.875 M213.375 45.738 C 317.236 55.132,382.300 160.360,344.079 257.125 C 310.621 341.834,210.586 379.126,129.105 337.267 C 49.672 296.460,21.536 196.512,67.836 119.625 C 93.194 77.514,138.814 49.354,187.500 45.759 C 189.494 45.612,191.688 45.450,192.375 45.399 C 194.805 45.218,210.416 45.470,213.375 45.738 M95.197 53.473 C 97.000 54.393,97.017 54.602,95.419 56.201 C 94.085 57.535,93.966 57.599,93.439 57.270 C 90.115 55.194,85.481 58.679,86.484 62.500 C 87.062 64.702,89.360 67.713,91.341 68.863 C 95.275 71.146,99.331 68.193,98.140 63.911 C 97.915 63.100,97.763 62.410,97.803 62.377 C 97.990 62.223,101.042 61.250,101.336 61.250 C 102.032 61.250,102.638 64.624,102.258 66.384 C 100.170 76.054,86.742 75.303,82.995 65.306 C 80.265 58.023,88.486 50.049,95.197 53.473 M313.038 55.173 L 314.702 56.517 311.172 67.113 L 307.643 77.708 307.009 77.234 C 306.660 76.974,305.876 76.323,305.266 75.789 L 304.157 74.818 304.974 72.534 C 305.967 69.759,306.192 70.272,302.784 67.533 C 299.440 64.845,299.840 64.915,297.543 66.619 L 295.711 67.978 293.978 66.825 C 293.024 66.191,292.301 65.615,292.371 65.545 C 292.511 65.406,298.986 61.168,302.750 58.753 C 304.056 57.915,306.414 56.399,307.990 55.383 C 309.566 54.367,310.973 53.602,311.115 53.682 C 311.258 53.763,312.124 54.434,313.038 55.173 M306.444 60.878 C 304.701 61.911,303.215 62.855,303.140 62.976 C 303.029 63.155,307.020 66.579,307.155 66.422 C 307.221 66.345,309.689 59.000,309.649 59.000 C 309.628 59.000,308.186 59.845,306.444 60.878 M145.875 267.250 C 174.612 295.988,198.153 319.500,198.187 319.500 C 198.222 319.500,198.250 309.116,198.250 296.425 L 198.250 273.351 189.563 267.886 C 184.784 264.880,180.509 262.151,180.063 261.822 L 179.250 261.225 179.250 238.112 L 179.250 215.000 136.438 215.000 L 93.625 215.000 145.875 267.250 M219.000 238.237 L 219.000 261.475 218.188 262.075 C 217.741 262.406,213.578 265.077,208.938 268.011 L 200.500 273.346 200.500 296.360 L 200.500 319.375 252.625 267.250 C 281.294 238.581,304.750 215.097,304.750 215.063 C 304.750 215.028,285.456 215.000,261.875 215.000 L 219.000 215.000 219.000 238.237 M258.750 345.925 C 258.750 348.334,256.703 351.500,255.145 351.500 C 254.937 351.500,255.007 347.642,255.222 347.296 C 255.502 346.845,258.750 345.582,258.750 345.925 M134.959 349.361 C 141.414 352.242,142.250 353.010,142.250 356.062 C 142.250 358.372,140.301 361.000,138.587 361.000 C 137.839 361.000,137.849 361.085,138.719 362.202 C 141.749 366.091,138.516 371.584,133.594 370.909 C 132.141 370.710,121.309 366.327,120.555 365.632 C 120.516 365.597,120.923 364.737,121.459 363.721 C 121.995 362.706,124.147 358.590,126.240 354.575 L 130.046 347.275 131.210 347.742 C 131.851 347.998,133.538 348.727,134.959 349.361 M264.981 351.503 C 265.720 353.365,266.763 352.694,257.500 356.313 C 255.689 357.020,255.684 357.025,256.079 358.018 C 256.266 358.489,256.612 359.402,256.849 360.046 L 257.279 361.217 258.827 360.623 C 259.678 360.296,261.815 359.467,263.575 358.781 C 266.749 357.543,266.777 357.537,266.983 358.079 C 267.097 358.379,267.375 359.067,267.601 359.607 C 267.827 360.147,267.925 360.673,267.818 360.775 C 267.593 360.993,259.328 364.250,259.001 364.250 C 258.470 364.250,258.552 364.859,259.404 367.228 C 260.486 370.242,259.801 370.187,265.954 367.750 C 268.730 366.650,271.144 365.750,271.318 365.750 C 271.618 365.750,272.938 368.654,272.726 368.849 C 272.671 368.900,271.837 369.225,270.875 369.572 C 269.913 369.918,266.604 371.169,263.523 372.351 C 260.442 373.533,257.797 374.500,257.646 374.500 C 257.280 374.500,250.884 355.264,251.160 354.997 C 251.278 354.882,253.794 353.875,256.750 352.759 C 259.706 351.642,262.519 350.570,263.000 350.377 C 264.299 349.856,264.334 349.876,264.981 351.503 M130.936 353.618 C 129.793 356.296,129.742 356.189,132.750 357.413 C 136.921 359.111,138.563 358.577,138.256 355.625 C 138.166 354.763,137.524 354.307,134.751 353.136 C 131.434 351.736,131.757 351.695,130.936 353.618 M155.161 356.776 C 156.104 357.066,156.913 357.338,156.959 357.381 C 157.104 357.517,159.976 379.087,159.871 379.257 C 159.816 379.345,158.782 379.177,157.573 378.883 L 155.375 378.348 155.047 375.867 C 154.654 372.889,155.319 373.453,150.602 372.099 L 146.632 370.959 145.628 372.160 C 145.076 372.820,144.326 373.699,143.961 374.114 L 143.297 374.868 141.135 374.164 C 139.580 373.658,139.037 373.378,139.202 373.167 C 139.328 373.007,140.808 371.188,142.490 369.125 C 144.172 367.063,146.961 363.631,148.689 361.500 C 152.143 357.238,153.005 356.250,153.270 356.250 C 153.368 356.250,154.219 356.487,155.161 356.776 M247.199 357.188 C 249.370 363.193,253.750 375.592,253.750 375.728 C 253.750 376.059,249.145 377.235,248.969 376.950 C 248.879 376.805,248.277 374.591,247.631 372.031 C 246.985 369.470,245.910 365.294,245.242 362.750 C 243.652 356.695,243.684 357.211,244.875 356.845 C 246.482 356.352,246.921 356.417,247.199 357.188 M238.931 359.887 C 242.279 361.556,243.473 366.410,241.315 369.573 C 240.371 370.956,238.985 371.658,235.750 372.395 C 234.169 372.755,232.753 373.084,232.604 373.126 C 232.421 373.178,232.559 374.420,233.023 376.911 C 233.403 378.951,233.687 380.647,233.653 380.680 C 233.589 380.745,229.733 381.500,229.467 381.500 C 229.381 381.500,229.118 380.234,228.883 378.688 C 228.649 377.141,227.961 372.781,227.354 369.000 C 226.355 362.769,226.128 361.029,226.313 360.985 C 232.973 359.407,237.224 359.037,238.931 359.887 M128.103 360.389 C 127.901 360.872,127.458 361.896,127.118 362.664 C 126.259 364.606,126.175 364.494,129.484 365.813 C 133.427 367.383,134.537 367.356,135.337 365.670 C 136.439 363.348,134.836 361.758,129.493 359.873 L 128.470 359.511 128.103 360.389 M168.646 360.035 C 169.459 360.192,170.219 360.404,170.334 360.506 C 170.514 360.667,169.248 367.744,167.762 374.875 C 167.187 377.633,166.685 377.285,172.598 378.225 C 175.333 378.659,177.650 379.063,177.746 379.122 C 177.910 379.224,177.599 382.234,177.404 382.429 C 177.265 382.569,163.389 380.182,162.547 379.874 C 162.366 379.808,162.274 379.664,162.341 379.554 C 162.409 379.445,163.378 375.085,164.495 369.865 C 165.611 364.646,166.572 360.234,166.630 360.063 C 166.757 359.681,166.804 359.680,168.646 360.035 M151.250 364.696 C 148.651 368.240,148.622 367.913,151.612 368.771 C 154.617 369.633,154.319 370.019,153.967 365.723 C 153.597 361.207,153.763 361.270,151.250 364.696 M222.250 361.961 C 222.250 362.077,222.696 365.368,223.240 369.274 C 224.906 381.221,224.985 381.866,224.802 382.032 C 224.609 382.208,221.179 382.738,221.039 382.613 C 220.944 382.528,219.260 368.410,219.254 367.646 C 219.242 366.150,218.848 368.287,217.871 375.137 C 216.616 383.946,216.944 383.175,214.406 383.288 L 212.437 383.375 210.140 376.125 C 208.877 372.137,207.766 368.706,207.671 368.500 C 207.576 368.294,207.553 369.587,207.619 371.375 C 207.686 373.163,207.817 376.678,207.909 379.188 L 208.076 383.750 206.038 383.750 L 204.000 383.750 203.973 380.563 C 203.958 378.809,203.919 376.925,203.884 376.375 C 203.850 375.825,203.778 372.619,203.724 369.250 L 203.625 363.125 206.375 362.994 C 207.887 362.923,209.200 362.896,209.292 362.934 C 209.385 362.973,210.434 365.928,211.625 369.500 C 212.816 373.072,213.867 376.043,213.961 376.101 C 214.055 376.159,214.631 373.074,215.242 369.246 L 216.352 362.286 218.114 362.051 C 220.454 361.740,222.250 361.701,222.250 361.961 M195.059 363.575 C 199.463 365.555,201.797 371.374,200.376 376.830 C 197.664 387.242,181.552 385.995,180.820 375.317 C 180.188 366.099,187.416 360.139,195.059 363.575 M232.429 363.434 C 230.837 363.737,230.506 363.879,230.605 364.215 C 230.672 364.440,230.906 365.637,231.126 366.875 C 231.346 368.113,231.569 369.256,231.622 369.416 C 231.739 369.772,235.543 368.999,236.755 368.373 C 238.196 367.627,238.601 365.406,237.534 364.099 C 236.564 362.912,235.733 362.804,232.429 363.434 M188.798 366.588 C 184.268 368.229,183.699 377.556,187.996 379.748 C 193.027 382.315,197.482 377.654,196.248 371.115 C 195.542 367.373,192.214 365.350,188.798 366.588 " stroke="none" fill="#fbf8f7" fill-rule="evenodd"></path><path id="path4" d="M158.887 185.712 C 159.252 186.037,179.004 199.000,179.135 199.000 C 179.198 199.000,179.250 195.963,179.250 192.250 L 179.250 185.500 168.950 185.500 C 163.285 185.500,158.757 185.595,158.887 185.712 M219.000 192.390 C 219.000 197.834,219.066 199.240,219.313 199.093 C 220.092 198.627,239.152 185.915,239.363 185.720 C 239.499 185.593,235.231 185.500,229.300 185.500 L 219.000 185.500 219.000 192.390 M184.750 261.850 C 184.750 262.206,198.785 270.750,199.370 270.750 C 199.927 270.750,212.667 263.024,213.863 261.961 C 213.993 261.845,207.496 261.750,199.425 261.750 C 191.354 261.750,184.750 261.795,184.750 261.850 " stroke="none" fill="#f44494" fill-rule="evenodd"></path></g></svg>